<?xml version="1.0" encoding="iso-8859-1"?>
<!-- Uploaded to: SVG Repo, www.svgrepo.com, Generator: SVG Repo Mixer Tools -->
<svg fill="#000000" height="800px" width="800px" version="1.1" id="Layer_1" xmlns="http://www.w3.org/2000/svg" xmlns:xlink="http://www.w3.org/1999/xlink" 
	 viewBox="0 0 259.145 259.145" xml:space="preserve">
<g>
	<g>
		<path d="M250.422,208.305l-42.919-42.919c-2.914-2.912-7.626-2.925-10.559-0.044l-48.069-48.069l13.04-13.04l2.276,2.276
			c2.929,2.927,7.678,2.928,10.607,0l19.873-19.873c2.929-2.93,2.929-7.678,0-10.607L120.838,2.196
			c-2.928-2.926-7.677-2.929-10.607,0.001L90.359,22.069c-2.929,2.929-2.929,7.677,0,10.607l2.276,2.276L34.953,92.634l-2.276-2.276
			c-2.929-2.927-7.678-2.929-10.607,0L2.197,110.23c-2.927,2.927-2.93,7.676-0.001,10.607l73.834,73.834
			c2.931,2.929,7.678,2.928,10.607,0l19.873-19.873c2.927-2.929,2.928-7.677,0-10.607l-2.276-2.276l13.04-13.04l48.069,48.069
			c-2.883,2.933-2.87,7.645,0.044,10.559l42.919,42.919c5.625,5.624,13.104,8.722,21.058,8.722c16.461,0,29.78-13.318,29.78-29.78
			C259.144,221.409,256.046,213.93,250.422,208.305z M115.534,18.107l63.228,63.227l-9.267,9.267l-2.268-2.268
			c-0.003-0.003-0.006-0.007-0.009-0.01l-58.673-58.674c-0.003-0.003-0.007-0.006-0.011-0.01l-2.267-2.267L115.534,18.107z
			 M81.334,178.761l-63.228-63.228l9.267-9.266l63.228,63.227L81.334,178.761z M93.627,151.308L45.56,103.241l57.682-57.682
			l48.066,48.067C145.002,99.933,100.194,144.74,93.627,151.308z M127.881,138.268l10.387-10.387l48.066,48.066l-10.387,10.387
			L127.881,138.268z M239.815,239.814c-5.762,5.765-15.14,5.764-20.901,0l-37.616-37.615l20.902-20.902l37.615,37.616
			C245.577,224.675,245.577,234.051,239.815,239.814z"/>
	</g>
</g>
</svg>